# xmcd
#
# Track frame offsets:
#	182
#	16807
#	30067
#	46830
#	65562
#	79177
#	95180
#	112410
#	129037
#	145045
#
# Disc length: 2208 seconds
# Revision: 0
# Processed by: cddbd v1.5.2PL0 Copyright (c) Steve Scherf et al.
# Submitted via: dBpowerAMP V12.0
#
DISCID=7a089e0a
DTITLE=Mike Bloomfield - Triumvirate
DYEAR=1973
DGENRE=Blues
TTITLE0=Cha-Dooky-Doo
TTITLE1=Last Night
TTITLE2=I Yi Yi
TTITLE3=Just to Be with You
TTITLE4=Baby Let Me Kiss You
TTITLE5=Sho 'Bout to Drive Me Wild
TTITLE6=It Hurts Me Too
TTITLE7=Rock Me Baby
TTITLE8=Ground Hog Blues
TTITLE9=Pretty Thing
EXTD=
EXTT0=
EXTT1=
EXTT2=
EXTT3=
EXTT4=
EXTT5=
EXTT6=
EXTT7=
EXTT8=
EXTT9=
PLAYORDER=
